# xmcd CD database file
#
# Track frame offsets:
#	150
#	12800
#	22515
#	34437
#	51234
#	71246
#	86649
#	100074
#	110016
#	122346
#
# Disc length: 2003 seconds
#
# Revision: 0
# Processed by: cddbd v1.5.1PL2 Copyright (c) Steve Scherf et al.
# Submitted via: CDex 1.60beta1
#
DISCID=7907d10a
DTITLE=Buffalo Springfield - Again
DYEAR=1967
DGENRE=Pop
TTITLE0=Mr. Soul
TTITLE1=Child's Claim to Fame
TTITLE2=Everydays
TTITLE3=Expecting to Fly
TTITLE4=Bluebird
TTITLE5=Hung Upside Down
TTITLE6=Sad Memory
TTITLE7=Good Time Boy
TTITLE8=Rock and Roll Woman
TTITLE9=Broken Arrow
EXTD=YEAR: 1967
EXTT0=
EXTT1=
EXTT2=
EXTT3=
EXTT4=
EXTT5=
EXTT6=
EXTT7=
EXTT8=
EXTT9=
PLAYORDER=
